# xmcd CD database file
#
# Track frame offsets:
#	150
#	25710
#	43572
#	60267
#	70362
#	85032
#	101670
#	113880
#	125207
#	148347
#	158750
#	173380
#	189205
#	206957
#	217007
#	227905
#
# Disc length: 3474 seconds
#
# Revision: 0
# Processed by: cddbd v1.4PL0 Copyright (c) Steve Scherf et al.
# Submitted via: CDex 1.50Beta7
#
DISCID=e10d9010
DTITLE=George Lewis and Placide Adams - George Lewis Plays Hymns
DYEAR=1964
DGENRE=Jazz
TTITLE0=In The Upper Garden
TTITLE1=Does Jesus Care
TTITLE2=God Will Take Care Of You
TTITLE3=His Eye Is On The Sparrow
TTITLE4=When I Come To The End Of My Journey
TTITLE5=Near My god To Thee
TTITLE6=Sing On
TTITLE7=I Shall Not Be Moved
TTITLE8=What A Friend We Have In Jesus
TTITLE9=At The Cross
TTITLE10=Where He Leads Me
TTITLE11=Only A Look
TTITLE12=Lily Of The Valley
TTITLE13=Near The Cross
TTITLE14=Rock Of Ages
TTITLE15=Interview With George Lewis
EXTD=YEAR: 1964
EXTT0=
EXTT1=
EXTT2=
EXTT3=
EXTT4=
EXTT5=
EXTT6=
EXTT7=
EXTT8=
EXTT9=
EXTT10=
EXTT11=
EXTT12=
EXTT13=
EXTT14=
EXTT15=
PLAYORDER=
